<?xml version="1.0" encoding="utf-8"?>
<svg viewBox="0 0 512 512" style="height: 512px; width: 512px;" xmlns="http://www.w3.org/2000/svg">
  <g class="" transform="matrix(1, 0, 0, 1, 2, 0)" style="">
    <path d="M 451.984 179.876 C 431.914 179.771 408.377 190.041 389.204 209.214 C 383.242 215.177 378.153 221.564 373.956 228.136 C 268.755 164.772 3.726 313.775 173.105 441.087 L 173.103 441.089 L 39.202 441.089 L 9.516 494.664 L 298.114 494.664 L 198.821 378.794 C 226.058 348.822 274.52 329.745 307.673 328.221 C 323.152 378.831 348.354 455.591 388.176 494.662 L 456.482 494.662 C 408.148 442.424 370.59 372.233 364.531 292.828 C 366.344 296.454 368.675 299.775 371.582 302.684 C 392.528 323.629 434.374 315.738 465.053 285.061 C 495.729 254.386 503.617 212.54 482.671 191.595 C 474.816 183.74 464.026 179.941 451.984 179.877 L 451.984 179.876 Z" fill-opacity="1" style="fill: rgb(255, 255, 255);"/>
  </g>
</svg>